<svg xmlns="http://www.w3.org/2000/svg" viewBox="0 0 1474.72 1164.25"><defs><style>.cls-1{fill:#353aec;}</style></defs><g id="Layer_2" data-name="Layer 2"><g id="Layer_1-2" data-name="Layer 1"><circle class="cls-1" cx="737.42" cy="214.3" r="214.3"/><path class="cls-1" d="M702.11,719,686,1164.25a733.58,733.58,0,0,1-168.71-31.47l10.92-299c1.25-32.31-37.77-49.1-60.65-26.44l-194.3,194.31A727.44,727.44,0,0,1,130.52,847.4l184-183.81c22.67-22.88,5.67-61.7-26.44-60.44l-265,9.44A723.78,723.78,0,0,1,0,443.68l412.12-14.9C574.74,422.9,708,556.36,702.11,719Z"/><path class="cls-1" d="M1189.56,663.59,1356,830A727.93,727.93,0,0,1,1217.47,988.2L1036.38,807.32c-22.66-22.66-61.69-5.87-60.43,26.44l10.49,289.15a723.86,723.86,0,0,1-168.5,38.82L802,719c-5.87-162.62,127.37-296.08,290-290.2l382.74,13.85a734.91,734.91,0,0,1-22.66,168.91L1216,603.15C1183.68,601.89,1166.9,640.71,1189.56,663.59Z"/></g></g></svg>